<?xml version="1.0" encoding="UTF-8"?>
<!DOCTYPE svg PUBLIC "-//W3C//DTD SVG 1.1//EN" "http://www.w3.org/Graphics/SVG/1.1/DTD/svg11.dtd">
<svg xmlns="http://www.w3.org/2000/svg" version="1.1" width="591px" height="591px" style="shape-rendering:geometricPrecision; text-rendering:geometricPrecision; image-rendering:optimizeQuality; fill-rule:evenodd; clip-rule:evenodd" xmlns:xlink="http://www.w3.org/1999/xlink">
<g><path style="opacity:1" fill="#294c22" d="M -0.5,-0.5 C 196.5,-0.5 393.5,-0.5 590.5,-0.5C 590.5,196.5 590.5,393.5 590.5,590.5C 393.5,590.5 196.5,590.5 -0.5,590.5C -0.5,393.5 -0.5,196.5 -0.5,-0.5 Z"/></g>
<g><path style="opacity:1" fill="#5c953e" d="M 378.5,51.5 C 365.524,47.3998 352.358,43.7331 339,40.5C 338.667,40.8333 338.333,41.1667 338,41.5C 333.706,39.7518 329.206,39.0852 324.5,39.5C 320.87,39.0431 317.203,38.7097 313.5,38.5C 313.719,39.675 313.386,40.675 312.5,41.5C 311.438,40.5754 311.438,39.5754 312.5,38.5C 308.649,37.1905 304.649,37.1905 300.5,38.5C 299.061,40.2746 298.061,42.2746 297.5,44.5C 297.39,46.374 298.056,47.874 299.5,49C 297.632,49.899 296.632,51.399 296.5,53.5C 297.484,62.7009 297.817,72.0343 297.5,81.5C 297.5,88.5 297.5,95.5 297.5,102.5C 304.858,102.418 312.191,102.752 319.5,103.5C 328.604,104.761 337.604,106.428 346.5,108.5C 408.48,127.64 451.48,167.473 475.5,228C 473.098,228.814 470.765,228.647 468.5,227.5C 449.379,180.211 416.712,145.711 370.5,124C 364.096,120.962 357.43,118.795 350.5,117.5C 348.142,115.871 345.476,114.705 342.5,114C 336.189,112.638 329.856,111.471 323.5,110.5C 315.035,108.921 306.368,108.421 297.5,109C 298.308,109.308 298.975,109.808 299.5,110.5C 298.221,115.321 297.554,120.321 297.5,125.5C 297.987,132.312 297.987,138.979 297.5,145.5C 297.67,147.715 298.337,149.715 299.5,151.5C 297.279,154.943 296.946,158.61 298.5,162.5C 297.833,166.167 297.167,169.833 296.5,173.5C 300.783,174.492 305.116,174.826 309.5,174.5C 318.125,176.154 326.792,178.154 335.5,180.5C 360.899,189.722 381.232,205.555 396.5,228C 394.833,228.667 393.167,228.667 391.5,228C 375.218,205.229 353.551,190.063 326.5,182.5C 317.189,179.532 307.522,178.198 297.5,178.5C 297.413,181.598 297.913,181.932 299,179.5C 299.699,181.074 299.365,182.407 298,183.5C 297.5,198.163 297.333,212.83 297.5,227.5C 301.702,227.183 305.702,227.517 309.5,228.5C 296.833,228.5 284.167,228.5 271.5,228.5C 278.345,227.833 285.345,227.167 292.5,226.5C 291.975,225.808 291.308,225.308 290.5,225C 291.98,223.701 292.646,222.034 292.5,220C 292.273,216.715 291.939,213.382 291.5,210C 292.467,203.911 293.134,197.745 293.5,191.5C 293.797,187.233 293.464,183.066 292.5,179C 283.537,177.685 274.871,178.852 266.5,182.5C 262.239,182.898 258.239,183.898 254.5,185.5C 232.331,193.827 214.331,207.661 200.5,227C 210.675,227.17 220.675,227.67 230.5,228.5C 218.167,228.5 205.833,228.5 193.5,228.5C 204.749,212.755 218.749,199.921 235.5,190C 241.712,186.727 248.046,183.727 254.5,181C 247.142,161.26 239.975,141.426 233,121.5C 232.612,120.572 231.945,119.905 231,119.5C 179.242,139.591 143.076,175.424 122.5,227C 130.344,227.171 138.011,227.671 145.5,228.5C 131.833,228.5 118.167,228.5 104.5,228.5C 108.298,227.517 112.298,227.183 116.5,227.5C 137.326,173.173 174.826,135.173 229,113.5C 223.633,95.4 217.633,77.4 211,59.5C 210.218,56.7835 208.884,54.4502 207,52.5C 124.85,84.6491 71.1835,142.982 46,227.5C 43.2809,228.444 40.4475,228.777 37.5,228.5C 60.1758,146.318 110.176,87.1514 187.5,51C 267.8,18.1457 346.467,21.8124 423.5,62C 488.913,99.9251 531.58,155.425 551.5,228.5C 548.5,228.5 545.5,228.5 542.5,228.5C 521.095,151.592 474.429,95.7585 402.5,61C 394.587,57.5406 386.587,54.374 378.5,51.5 Z"/></g>
<g><path style="opacity:1" fill="#568c3b" d="M 292.5,75.5 C 291.877,70.8695 289.544,69.3695 285.5,71C 286.78,73.1317 286.78,75.2984 285.5,77.5C 286.574,78.0798 287.574,77.5798 288.5,76C 287.405,70.5146 287.738,70.348 289.5,75.5C 287.905,78.1582 288.238,80.4916 290.5,82.5C 290.167,83.5 289.5,84.1667 288.5,84.5C 287.833,83.1667 287.167,81.8333 286.5,80.5C 285.069,80.9766 283.736,81.6433 282.5,82.5C 283.833,83.5 283.833,84.5 282.5,85.5C 284.126,86.9905 285.792,88.4905 287.5,90C 287.167,90.3333 286.833,90.6667 286.5,91C 288.784,92.3629 288.951,93.8629 287,95.5C 286.692,94.6919 286.192,94.0253 285.5,93.5C 284.813,95.2744 283.98,96.9411 283,98.5C 282.333,97.8333 281.667,97.1667 281,96.5C 278.318,98.1203 275.818,99.9537 273.5,102C 274.094,102.464 274.761,102.631 275.5,102.5C 273.777,103.807 271.943,103.807 270,102.5C 269.692,103.308 269.192,103.975 268.5,104.5C 267.167,103.167 265.833,103.167 264.5,104.5C 263.808,103.975 263.308,103.308 263,102.5C 262.182,106.323 261.016,106.49 259.5,103C 260.64,99.4818 262.474,95.9818 265,92.5C 265.333,93.1667 265.667,93.8333 266,94.5C 266.251,92.567 266.751,90.7337 267.5,89C 266.328,88.5814 265.328,87.9147 264.5,87C 266.226,85.4702 268.226,84.4702 270.5,84C 270.043,83.586 269.709,83.086 269.5,82.5C 270.5,81.8333 271.5,81.1667 272.5,80.5C 271.603,80.3309 270.603,79.9976 269.5,79.5C 270.816,78.1934 271.816,76.6934 272.5,75C 271.5,72.6667 270.5,70.3333 269.5,68C 271.5,67.1667 273.5,66.3333 275.5,65.5C 274.814,63.9361 274.981,62.2694 276,60.5C 277,59.1667 278,59.1667 279,60.5C 279.5,59.3333 280.333,58.5 281.5,58C 281.043,57.586 280.709,57.086 280.5,56.5C 281.692,53.0773 283.692,50.244 286.5,48C 285.262,48.0773 284.262,47.9106 283.5,47.5C 286.06,46.951 288.727,45.7843 291.5,44C 290.333,43.5 289.5,42.6667 289,41.5C 288.388,44.0317 286.888,44.8651 284.5,44C 286.408,40.9275 289.075,38.7608 292.5,37.5C 292.802,50.6512 292.802,63.3178 292.5,75.5 Z"/></g>
<g><path style="opacity:1" fill="#305726" d="M 324.5,39.5 C 329.206,39.0852 333.706,39.7518 338,41.5C 338.333,41.1667 338.667,40.8333 339,40.5C 352.358,43.7331 365.524,47.3998 378.5,51.5C 377.528,53.0638 375.528,54.0638 372.5,54.5C 370.833,53.8333 369.167,53.1667 367.5,52.5C 366.538,54.8833 367.538,55.8833 370.5,55.5C 370.804,58.5792 371.804,61.4125 373.5,64C 371.606,65.0793 371.273,66.4126 372.5,68C 370.845,70.4976 368.512,71.9976 365.5,72.5C 363.055,74.3636 362.888,76.3636 365,78.5C 366.205,77.9288 367.372,77.2621 368.5,76.5C 367.397,76.0024 366.397,75.6691 365.5,75.5C 367.617,72.6127 368.95,72.9461 369.5,76.5C 368.99,78.0879 367.99,79.2545 366.5,80C 367.167,80.3333 367.833,80.6667 368.5,81C 367.663,82.0113 367.33,83.1779 367.5,84.5C 366.167,84.5 364.833,84.5 363.5,84.5C 363.351,85.552 363.517,86.552 364,87.5C 364.718,86.5494 365.551,86.3828 366.5,87C 365.377,88.0437 364.044,88.7104 362.5,89C 363.578,89.6739 364.245,90.6739 364.5,92C 363.238,95.0257 362.238,98.1923 361.5,101.5C 360.904,100.284 360.737,98.9506 361,97.5C 359.324,96.9389 357.991,95.9389 357,94.5C 356.751,95.624 356.251,96.624 355.5,97.5C 354.232,96.5721 352.899,96.4054 351.5,97C 352.167,97.3333 352.833,97.6667 353.5,98C 352.891,100.058 351.891,100.891 350.5,100.5C 351.681,102.198 351.681,103.865 350.5,105.5C 348.219,104.738 346.886,105.738 346.5,108.5C 337.604,106.428 328.604,104.761 319.5,103.5C 320.29,102.206 321.29,101.039 322.5,100C 321.551,99.3828 320.718,99.5494 320,100.5C 319.251,99.365 319.417,98.365 320.5,97.5C 321.72,98.7111 322.887,98.7111 324,97.5C 323.591,95.7749 323.758,94.1082 324.5,92.5C 325.5,93.1667 326.5,93.8333 327.5,94.5C 328.23,92.6587 328.897,90.8254 329.5,89C 331.725,88.7613 332.058,89.5946 330.5,91.5C 331.376,92.2508 332.376,92.7508 333.5,93C 332.289,93.8928 332.289,94.7261 333.5,95.5C 334.846,93.4911 336.18,91.4911 337.5,89.5C 336.635,88.4173 335.635,88.2506 334.5,89C 335.654,89.9138 335.487,90.7471 334,91.5C 333.5,90.5 333,89.5 332.5,88.5C 334.167,87.8333 335.833,87.1667 337.5,86.5C 336.311,85.5713 334.978,85.238 333.5,85.5C 333.587,82.4017 333.087,82.0684 332,84.5C 330.745,83.7894 329.579,82.956 328.5,82C 329.833,81 329.833,80 328.5,79C 330.076,79.1519 331.409,79.9852 332.5,81.5C 333.59,80.6086 333.59,79.6086 332.5,78.5C 333.167,78.1667 333.833,77.8333 334.5,77.5C 331.284,77.8951 328.617,76.5617 326.5,73.5C 327.906,71.974 329.072,70.3073 330,68.5C 330.167,69 330.333,69.5 330.5,70C 329.394,71.8822 329.394,73.7156 330.5,75.5C 331.486,71.625 332.653,71.625 334,75.5C 335.181,72.8063 337.014,70.1396 339.5,67.5C 340.731,68.6507 340.731,69.8173 339.5,71C 340,71.5 340.5,72 341,72.5C 341.5,71.3333 342.333,70.5 343.5,70C 342.359,69.2588 342.359,68.4255 343.5,67.5C 342.975,66.8076 342.308,66.3076 341.5,66C 343.269,64.9806 344.936,64.814 346.5,65.5C 347.472,63.3635 349.139,62.1968 351.5,62C 350.069,61.5348 348.903,60.7014 348,59.5C 346.921,61.3937 345.587,61.727 344,60.5C 343.692,61.3081 343.192,61.9747 342.5,62.5C 341.205,61.9017 339.872,61.4017 338.5,61C 339.938,60.7811 341.271,60.2811 342.5,59.5C 334.156,57.1943 333.489,58.8609 340.5,64.5C 338.598,66.1511 336.598,66.4845 334.5,65.5C 334.709,64.914 335.043,64.414 335.5,64C 334.167,63.3333 332.833,62.6667 331.5,62C 335.081,61.3252 335.081,60.1585 331.5,58.5C 329.87,60.6815 328.537,60.6815 327.5,58.5C 327.808,57.6919 328.308,57.0253 329,56.5C 333.079,58.1335 336.412,57.1335 339,53.5C 339.308,54.3081 339.808,54.9747 340.5,55.5C 341.949,53.3894 342.949,51.0561 343.5,48.5C 343.167,48.1667 342.833,47.8333 342.5,47.5C 340.418,49.1074 338.918,50.7741 338,52.5C 337.692,51.6919 337.192,51.0253 336.5,50.5C 335.41,51.3914 335.41,52.3914 336.5,53.5C 335.758,54.2868 334.925,54.9535 334,55.5C 333.71,53.9559 333.044,52.6226 332,51.5C 331.383,52.4491 331.549,53.2825 332.5,54C 331.975,54.6924 331.308,55.1924 330.5,55.5C 329.315,54.147 327.981,52.9803 326.5,52C 327.833,51.6667 329.167,51.3333 330.5,51C 328.653,49.297 326.819,49.4637 325,51.5C 324.417,49.9984 323.584,48.6651 322.5,47.5C 321.808,48.0253 321.308,48.6919 321,49.5C 320.626,48.5838 320.126,47.7504 319.5,47C 322.354,44.7339 324.187,45.2339 325,48.5C 325.667,47.1667 326.333,47.1667 327,48.5C 329.056,45.691 328.223,44.3577 324.5,44.5C 324.67,43.1779 324.337,42.0113 323.5,41C 322.049,41.2626 320.716,41.0959 319.5,40.5C 321.045,39.5481 322.712,39.2148 324.5,39.5 Z"/></g>
<g><path style="opacity:1" fill="#38622a" d="M 312.5,38.5 C 311.438,39.5754 311.438,40.5754 312.5,41.5C 313.386,40.675 313.719,39.675 313.5,38.5C 317.203,38.7097 320.87,39.0431 324.5,39.5C 322.712,39.2148 321.045,39.5481 319.5,40.5C 320.716,41.0959 322.049,41.2626 323.5,41C 324.337,42.0113 324.67,43.1779 324.5,44.5C 328.223,44.3577 329.056,45.691 327,48.5C 326.333,47.1667 325.667,47.1667 325,48.5C 324.187,45.2339 322.354,44.7339 319.5,47C 320.126,47.7504 320.626,48.5838 321,49.5C 321.308,48.6919 321.808,48.0253 322.5,47.5C 323.584,48.6651 324.417,49.9984 325,51.5C 326.819,49.4637 328.653,49.297 330.5,51C 329.167,51.3333 327.833,51.6667 326.5,52C 327.981,52.9803 329.315,54.147 330.5,55.5C 331.308,55.1924 331.975,54.6924 332.5,54C 331.549,53.2825 331.383,52.4491 332,51.5C 333.044,52.6226 333.71,53.9559 334,55.5C 334.925,54.9535 335.758,54.2868 336.5,53.5C 335.41,52.3914 335.41,51.3914 336.5,50.5C 337.192,51.0253 337.692,51.6919 338,52.5C 338.918,50.7741 340.418,49.1074 342.5,47.5C 342.833,47.8333 343.167,48.1667 343.5,48.5C 342.949,51.0561 341.949,53.3894 340.5,55.5C 339.808,54.9747 339.308,54.3081 339,53.5C 336.412,57.1335 333.079,58.1335 329,56.5C 328.308,57.0253 327.808,57.6919 327.5,58.5C 328.537,60.6815 329.87,60.6815 331.5,58.5C 335.081,60.1585 335.081,61.3252 331.5,62C 332.833,62.6667 334.167,63.3333 335.5,64C 335.043,64.414 334.709,64.914 334.5,65.5C 336.598,66.4845 338.598,66.1511 340.5,64.5C 333.489,58.8609 334.156,57.1943 342.5,59.5C 341.271,60.2811 339.938,60.7811 338.5,61C 339.872,61.4017 341.205,61.9017 342.5,62.5C 343.192,61.9747 343.692,61.3081 344,60.5C 345.587,61.727 346.921,61.3937 348,59.5C 348.903,60.7014 350.069,61.5348 351.5,62C 349.139,62.1968 347.472,63.3635 346.5,65.5C 344.936,64.814 343.269,64.9806 341.5,66C 342.308,66.3076 342.975,66.8076 343.5,67.5C 342.359,68.4255 342.359,69.2588 343.5,70C 342.333,70.5 341.5,71.3333 341,72.5C 340.5,72 340,71.5 339.5,71C 340.731,69.8173 340.731,68.6507 339.5,67.5C 337.014,70.1396 335.181,72.8063 334,75.5C 332.653,71.625 331.486,71.625 330.5,75.5C 329.394,73.7156 329.394,71.8822 330.5,70C 330.333,69.5 330.167,69 330,68.5C 329.072,70.3073 327.906,71.974 326.5,73.5C 328.617,76.5617 331.284,77.8951 334.5,77.5C 333.833,77.8333 333.167,78.1667 332.5,78.5C 333.59,79.6086 333.59,80.6086 332.5,81.5C 331.409,79.9852 330.076,79.1519 328.5,79C 329.833,80 329.833,81 328.5,82C 329.579,82.956 330.745,83.7894 332,84.5C 333.087,82.0684 333.587,82.4017 333.5,85.5C 334.978,85.238 336.311,85.5713 337.5,86.5C 335.833,87.1667 334.167,87.8333 332.5,88.5C 333,89.5 333.5,90.5 334,91.5C 335.487,90.7471 335.654,89.9138 334.5,89C 335.635,88.2506 336.635,88.4173 337.5,89.5C 336.18,91.4911 334.846,93.4911 333.5,95.5C 332.289,94.7261 332.289,93.8928 333.5,93C 332.376,92.7508 331.376,92.2508 330.5,91.5C 332.058,89.5946 331.725,88.7613 329.5,89C 328.897,90.8254 328.23,92.6587 327.5,94.5C 326.5,93.8333 325.5,93.1667 324.5,92.5C 323.758,94.1082 323.591,95.7749 324,97.5C 322.887,98.7111 321.72,98.7111 320.5,97.5C 319.417,98.365 319.251,99.365 320,100.5C 320.718,99.5494 321.551,99.3828 322.5,100C 321.29,101.039 320.29,102.206 319.5,103.5C 312.191,102.752 304.858,102.418 297.5,102.5C 297.5,95.5 297.5,88.5 297.5,81.5C 298.397,82.5981 299.23,82.5981 300,81.5C 298.867,77.2368 299.7,76.7368 302.5,80C 313.776,84.3246 315.609,82.158 308,73.5C 307.383,72.5509 307.549,71.7175 308.5,71C 307.551,70.3828 306.718,70.5494 306,71.5C 305.075,70.9535 304.242,70.2868 303.5,69.5C 305.98,68.5846 306.647,67.0846 305.5,65C 307.047,64.6666 308.38,65.1666 309.5,66.5C 310.614,65.277 310.781,63.9437 310,62.5C 308.16,63.8331 307.66,63.6665 308.5,62C 307.057,59.6162 305.723,57.1162 304.5,54.5C 304.556,53.263 305.056,52.263 306,51.5C 306.674,53.5165 307.841,55.1832 309.5,56.5C 306.879,58.8718 307.212,59.5384 310.5,58.5C 311.099,55.1127 312.432,52.1127 314.5,49.5C 314.201,47.1854 313.368,47.1854 312,49.5C 308.582,46.7671 308.749,45.4338 312.5,45.5C 311.102,43.8697 310.102,42.0363 309.5,40C 310.244,38.9614 311.244,38.4614 312.5,38.5 Z"/></g>
<g><path style="opacity:1" fill="#457532" d="M 312.5,38.5 C 311.244,38.4614 310.244,38.9614 309.5,40C 310.102,42.0363 311.102,43.8697 312.5,45.5C 308.749,45.4338 308.582,46.7671 312,49.5C 313.368,47.1854 314.201,47.1854 314.5,49.5C 312.432,52.1127 311.099,55.1127 310.5,58.5C 307.212,59.5384 306.879,58.8718 309.5,56.5C 307.841,55.1832 306.674,53.5165 306,51.5C 305.056,52.263 304.556,53.263 304.5,54.5C 305.723,57.1162 307.057,59.6162 308.5,62C 307.66,63.6665 308.16,63.8331 310,62.5C 310.781,63.9437 310.614,65.277 309.5,66.5C 308.38,65.1666 307.047,64.6666 305.5,65C 306.647,67.0846 305.98,68.5846 303.5,69.5C 304.242,70.2868 305.075,70.9535 306,71.5C 306.718,70.5494 307.551,70.3828 308.5,71C 307.549,71.7175 307.383,72.5509 308,73.5C 315.609,82.158 313.776,84.3246 302.5,80C 299.7,76.7368 298.867,77.2368 300,81.5C 299.23,82.5981 298.397,82.5981 297.5,81.5C 297.817,72.0343 297.484,62.7009 296.5,53.5C 296.632,51.399 297.632,49.899 299.5,49C 298.056,47.874 297.39,46.374 297.5,44.5C 298.061,42.2746 299.061,40.2746 300.5,38.5C 304.649,37.1905 308.649,37.1905 312.5,38.5 Z"/></g>
<g><path style="opacity:1" fill="#467632" d="M 292.5,75.5 C 292.714,83.7139 292.714,92.3805 292.5,101.5C 287.26,101.764 281.593,102.097 275.5,102.5C 274.761,102.631 274.094,102.464 273.5,102C 275.818,99.9537 278.318,98.1203 281,96.5C 281.667,97.1667 282.333,97.8333 283,98.5C 283.98,96.9411 284.813,95.2744 285.5,93.5C 286.192,94.0253 286.692,94.6919 287,95.5C 288.951,93.8629 288.784,92.3629 286.5,91C 286.833,90.6667 287.167,90.3333 287.5,90C 285.792,88.4905 284.126,86.9905 282.5,85.5C 283.833,84.5 283.833,83.5 282.5,82.5C 283.736,81.6433 285.069,80.9766 286.5,80.5C 287.167,81.8333 287.833,83.1667 288.5,84.5C 289.5,84.1667 290.167,83.5 290.5,82.5C 288.238,80.4916 287.905,78.1582 289.5,75.5C 287.738,70.348 287.405,70.5146 288.5,76C 287.574,77.5798 286.574,78.0798 285.5,77.5C 286.78,75.2984 286.78,73.1317 285.5,71C 289.544,69.3695 291.877,70.8695 292.5,75.5 Z"/></g>
<g><path style="opacity:1" fill="#305726" d="M 323.5,110.5 C 329.856,111.471 336.189,112.638 342.5,114C 345.476,114.705 348.142,115.871 350.5,117.5C 350.631,121.652 352.131,122.318 355,119.5C 355.448,121.409 354.615,122.576 352.5,123C 353.554,124.388 353.72,125.888 353,127.5C 350.782,128.924 349.282,130.924 348.5,133.5C 347.351,130.571 345.685,130.071 343.5,132C 345.597,133.61 347.93,134.777 350.5,135.5C 350.023,136.478 349.357,137.311 348.5,138C 350.175,138.985 351.842,139.819 353.5,140.5C 340.526,141.143 336.526,147.477 341.5,159.5C 342.791,159.263 343.791,159.596 344.5,160.5C 342.376,161.031 340.876,162.365 340,164.5C 339.586,164.043 339.086,163.709 338.5,163.5C 337.571,164.689 337.238,166.022 337.5,167.5C 334.729,167.421 332.063,167.921 329.5,169C 330.891,170.02 332.391,170.853 334,171.5C 335.186,169.323 337.019,168.323 339.5,168.5C 339.769,170.429 339.269,172.095 338,173.5C 337.577,172.044 336.744,171.544 335.5,172C 337.539,175.08 337.539,177.913 335.5,180.5C 326.792,178.154 318.125,176.154 309.5,174.5C 308.797,172.966 308.964,171.299 310,169.5C 312.449,170.523 314.949,171.023 317.5,171C 316.051,169.883 314.384,169.216 312.5,169C 313.34,167.334 312.84,167.167 311,168.5C 310.56,166.924 309.727,165.59 308.5,164.5C 309.689,163.571 311.022,163.238 312.5,163.5C 312.762,162.022 312.429,160.689 311.5,159.5C 310.045,161.944 308.379,162.444 306.5,161C 307.253,159.513 308.086,159.346 309,160.5C 307.899,158.208 308.732,156.708 311.5,156C 309.112,155.395 306.779,154.062 304.5,152C 306.301,151.683 306.634,151.016 305.5,150C 304.262,150.077 303.262,149.911 302.5,149.5C 304.656,147.51 306.656,145.343 308.5,143C 306.888,142.28 305.388,142.446 304,143.5C 302.599,141.854 302.432,140.187 303.5,138.5C 305.434,138.099 306.934,137.099 308,135.5C 311.592,138.607 312.759,137.94 311.5,133.5C 309.549,134.256 307.716,134.589 306,134.5C 305.517,133.552 305.351,132.552 305.5,131.5C 307.942,131.646 308.609,130.813 307.5,129C 308.126,128.25 308.626,127.416 309,126.5C 311.635,125.527 313.635,123.86 315,121.5C 316.498,123.614 318.331,124.114 320.5,123C 321.861,124.584 322.528,126.418 322.5,128.5C 320.224,127.045 317.891,125.879 315.5,125C 315.833,125.333 316.167,125.667 316.5,126C 314.986,127.439 314.653,128.939 315.5,130.5C 316.192,129.975 316.692,129.308 317,128.5C 320.029,130.029 322.195,132.362 323.5,135.5C 323.155,133.618 323.655,131.618 325,129.5C 326.133,131.211 327.633,131.711 329.5,131C 328.151,130.228 327.318,129.061 327,127.5C 326.086,128.654 325.253,128.487 324.5,127C 325.167,126.667 325.833,126.333 326.5,126C 325.377,124.956 324.044,124.29 322.5,124C 323.289,120.903 324.456,120.736 326,123.5C 330.978,119.785 330.478,118.785 324.5,120.5C 323.289,119.726 323.289,118.893 324.5,118C 322.55,118.123 320.883,117.123 319.5,115C 321.078,113.86 322.744,113.36 324.5,113.5C 323.758,112.713 322.925,112.047 322,111.5C 319.511,113.358 317.011,114.358 314.5,114.5C 315.025,115.192 315.692,115.692 316.5,116C 316.201,117.32 316.034,118.82 316,120.5C 315.309,118.109 314.309,118.109 313,120.5C 312.493,119.004 312.993,117.837 314.5,117C 313.833,116.667 313.167,116.333 312.5,116C 313.38,114.644 313.714,113.144 313.5,111.5C 316.807,110.949 320.14,110.616 323.5,110.5 Z"/></g>
<g><path style="opacity:1" fill="#294c22" d="M 193.5,228.5 C 199.325,251.285 205.659,273.951 212.5,296.5C 193.81,320.186 175.143,343.852 156.5,367.5C 155.778,367.918 155.278,368.584 155,369.5C 154.824,365.312 154.324,361.312 153.5,357.5C 151.529,314.305 148.863,271.305 145.5,228.5C 138.011,227.671 130.344,227.171 122.5,227C 143.076,175.424 179.242,139.591 231,119.5C 231.945,119.905 232.612,120.572 233,121.5C 239.975,141.426 247.142,161.26 254.5,181C 248.046,183.727 241.712,186.727 235.5,190C 218.749,199.921 204.749,212.755 193.5,228.5 Z"/></g>
<g><path style="opacity:1" fill="#4c7f36" d="M 453.5,119.5 C 460.276,118.478 465.443,120.812 469,126.5C 469.991,137.841 464.824,142.674 453.5,141C 447.954,137.268 446.121,132.101 448,125.5C 450.04,123.63 451.873,121.63 453.5,119.5 Z"/></g>
<g><path style="opacity:1" fill="#427030" d="M 292.5,154.5 C 290.525,152.877 288.525,152.21 286.5,152.5C 288.64,150.415 290.474,150.415 292,152.5C 292.288,149.47 292.455,146.636 292.5,144C 289.291,142.039 288.291,142.873 289.5,146.5C 288.635,147.583 287.635,147.749 286.5,147C 287.634,145.984 287.301,145.317 285.5,145C 287.947,143.771 288.113,142.271 286,140.5C 284.513,141.253 284.346,142.086 285.5,143C 281.668,146.345 280.668,145.512 282.5,140.5C 282.877,138.742 283.544,137.075 284.5,135.5C 282.182,134.166 280.515,134.832 279.5,137.5C 277.512,136.711 277.179,135.545 278.5,134C 276.793,133.805 275.126,133.805 273.5,134C 274.946,131.507 274.279,129.673 271.5,128.5C 273.042,128.306 274.375,127.139 275.5,125C 274.663,123.989 274.33,122.822 274.5,121.5C 271.476,121.636 269.976,120.302 270,117.5C 271.583,119.055 273.416,120.222 275.5,121C 276.191,122.067 276.691,123.234 277,124.5C 278.564,122.335 278.397,120.668 276.5,119.5C 277.953,119.94 279.119,119.274 280,117.5C 281.284,118.572 281.617,119.905 281,121.5C 281.414,121.043 281.914,120.709 282.5,120.5C 283.833,122.167 285.167,123.833 286.5,125.5C 287.5,125.167 288.167,124.5 288.5,123.5C 286.703,121.869 285.536,119.869 285,117.5C 282.016,119.707 281.85,119.207 284.5,116C 282.662,116.633 280.829,116.466 279,115.5C 277.715,115.95 276.548,116.617 275.5,117.5C 274.713,116.758 274.047,115.925 273.5,115C 274.931,114.535 276.097,113.701 277,112.5C 277.333,112.833 277.667,113.167 278,113.5C 278.41,112.099 278.91,110.766 279.5,109.5C 283.735,108.564 288.069,108.231 292.5,108.5C 293.674,123.298 293.674,138.631 292.5,154.5 Z"/></g>
<g><path style="opacity:1" fill="#4c7e35" d="M 279.5,109.5 C 278.91,110.766 278.41,112.099 278,113.5C 277.667,113.167 277.333,112.833 277,112.5C 276.097,113.701 274.931,114.535 273.5,115C 274.047,115.925 274.713,116.758 275.5,117.5C 276.548,116.617 277.715,115.95 279,115.5C 280.829,116.466 282.662,116.633 284.5,116C 281.85,119.207 282.016,119.707 285,117.5C 285.536,119.869 286.703,121.869 288.5,123.5C 288.167,124.5 287.5,125.167 286.5,125.5C 285.167,123.833 283.833,122.167 282.5,120.5C 281.914,120.709 281.414,121.043 281,121.5C 281.617,119.905 281.284,118.572 280,117.5C 279.119,119.274 277.953,119.94 276.5,119.5C 278.397,120.668 278.564,122.335 277,124.5C 276.691,123.234 276.191,122.067 275.5,121C 273.416,120.222 271.583,119.055 270,117.5C 269.976,120.302 271.476,121.636 274.5,121.5C 274.33,122.822 274.663,123.989 275.5,125C 274.375,127.139 273.042,128.306 271.5,128.5C 274.279,129.673 274.946,131.507 273.5,134C 275.126,133.805 276.793,133.805 278.5,134C 277.179,135.545 277.512,136.711 279.5,137.5C 280.515,134.832 282.182,134.166 284.5,135.5C 283.544,137.075 282.877,138.742 282.5,140.5C 281.07,142.744 279.07,144.577 276.5,146C 277.711,146.893 277.711,147.726 276.5,148.5C 274.618,147.907 272.785,147.24 271,146.5C 271.331,148.019 271.164,149.352 270.5,150.5C 269.849,149.909 269.182,149.243 268.5,148.5C 266.471,149.629 266.137,149.129 267.5,147C 266.67,145.253 265.67,143.587 264.5,142C 264.905,141.055 265.572,140.388 266.5,140C 265.241,139.077 263.908,138.243 262.5,137.5C 264.705,136.626 266.538,137.292 268,139.5C 271.418,136.767 271.251,135.434 267.5,135.5C 268.833,134.167 270.167,132.833 271.5,131.5C 269.167,130.5 267.5,128.833 266.5,126.5C 266.569,124.722 266.903,122.889 267.5,121C 264.041,121.734 263.707,120.734 266.5,118C 265.004,117.493 263.837,117.993 263,119.5C 262.552,117.591 263.385,116.424 265.5,116C 264.692,115.692 264.025,115.192 263.5,114.5C 265.108,113.758 266.775,113.591 268.5,114C 264.562,111.539 265.062,110.039 270,109.5C 271.326,109.755 272.326,110.422 273,111.5C 274.754,109.75 276.921,109.083 279.5,109.5 Z"/></g>
<g><path style="opacity:1" fill="#37602a" d="M 323.5,110.5 C 320.14,110.616 316.807,110.949 313.5,111.5C 313.714,113.144 313.38,114.644 312.5,116C 313.167,116.333 313.833,116.667 314.5,117C 312.993,117.837 312.493,119.004 313,120.5C 314.309,118.109 315.309,118.109 316,120.5C 316.034,118.82 316.201,117.32 316.5,116C 315.692,115.692 315.025,115.192 314.5,114.5C 317.011,114.358 319.511,113.358 322,111.5C 322.925,112.047 323.758,112.713 324.5,113.5C 322.744,113.36 321.078,113.86 319.5,115C 320.883,117.123 322.55,118.123 324.5,118C 323.289,118.893 323.289,119.726 324.5,120.5C 330.478,118.785 330.978,119.785 326,123.5C 324.456,120.736 323.289,120.903 322.5,124C 324.044,124.29 325.377,124.956 326.5,126C 325.833,126.333 325.167,126.667 324.5,127C 325.253,128.487 326.086,128.654 327,127.5C 327.318,129.061 328.151,130.228 329.5,131C 327.633,131.711 326.133,131.211 325,129.5C 323.655,131.618 323.155,133.618 323.5,135.5C 322.195,132.362 320.029,130.029 317,128.5C 316.692,129.308 316.192,129.975 315.5,130.5C 314.653,128.939 314.986,127.439 316.5,126C 316.167,125.667 315.833,125.333 315.5,125C 317.891,125.879 320.224,127.045 322.5,128.5C 322.528,126.418 321.861,124.584 320.5,123C 318.331,124.114 316.498,123.614 315,121.5C 313.635,123.86 311.635,125.527 309,126.5C 308.626,127.416 308.126,128.25 307.5,129C 308.609,130.813 307.942,131.646 305.5,131.5C 305.351,132.552 305.517,133.552 306,134.5C 307.716,134.589 309.549,134.256 311.5,133.5C 312.759,137.94 311.592,138.607 308,135.5C 306.934,137.099 305.434,138.099 303.5,138.5C 302.432,140.187 302.599,141.854 304,143.5C 305.388,142.446 306.888,142.28 308.5,143C 306.656,145.343 304.656,147.51 302.5,149.5C 303.262,149.911 304.262,150.077 305.5,150C 306.634,151.016 306.301,151.683 304.5,152C 306.779,154.062 309.112,155.395 311.5,156C 308.732,156.708 307.899,158.208 309,160.5C 308.086,159.346 307.253,159.513 306.5,161C 308.379,162.444 310.045,161.944 311.5,159.5C 312.429,160.689 312.762,162.022 312.5,163.5C 311.022,163.238 309.689,163.571 308.5,164.5C 309.727,165.59 310.56,166.924 311,168.5C 312.84,167.167 313.34,167.334 312.5,169C 314.384,169.216 316.051,169.883 317.5,171C 314.949,171.023 312.449,170.523 310,169.5C 308.964,171.299 308.797,172.966 309.5,174.5C 305.116,174.826 300.783,174.492 296.5,173.5C 297.167,169.833 297.833,166.167 298.5,162.5C 296.946,158.61 297.279,154.943 299.5,151.5C 298.337,149.715 297.67,147.715 297.5,145.5C 297.987,138.979 297.987,132.312 297.5,125.5C 297.554,120.321 298.221,115.321 299.5,110.5C 298.975,109.808 298.308,109.308 297.5,109C 306.368,108.421 315.035,108.921 323.5,110.5 Z"/></g>
<g><path style="opacity:1" fill="#4d8036" d="M 353.5,140.5 C 361.095,142.8 363.595,147.8 361,155.5C 356.88,162.334 351.38,164.001 344.5,160.5C 343.791,159.596 342.791,159.263 341.5,159.5C 336.526,147.477 340.526,141.143 353.5,140.5 Z"/></g>
<g><path style="opacity:1" fill="#3a652b" d="M 282.5,140.5 C 280.668,145.512 281.668,146.345 285.5,143C 284.346,142.086 284.513,141.253 286,140.5C 288.113,142.271 287.947,143.771 285.5,145C 287.301,145.317 287.634,145.984 286.5,147C 287.635,147.749 288.635,147.583 289.5,146.5C 288.291,142.873 289.291,142.039 292.5,144C 292.455,146.636 292.288,149.47 292,152.5C 290.474,150.415 288.64,150.415 286.5,152.5C 288.525,152.21 290.525,152.877 292.5,154.5C 292.778,160.83 292.945,167.163 293,173.5C 288.532,174.194 284.032,174.86 279.5,175.5C 277.588,175.512 275.588,175.179 273.5,174.5C 272.482,175.193 271.482,175.859 270.5,176.5C 268.974,175.895 267.974,174.729 267.5,173C 268.308,172.692 268.975,172.192 269.5,171.5C 266.917,170.536 266.417,169.202 268,167.5C 268.853,169.125 269.853,169.458 271,168.5C 271.333,169.5 271.667,170.5 272,171.5C 273.171,170.107 274.671,169.273 276.5,169C 275.062,168.781 273.729,168.281 272.5,167.5C 273.441,167.511 274.108,167.011 274.5,166C 273.99,164.174 273.156,164.007 272,165.5C 269.641,162.876 269.975,162.209 273,163.5C 274.814,162.149 274.481,161.149 272,160.5C 270.844,161.993 270.01,161.826 269.5,160C 269.63,158.941 270.13,158.108 271,157.5C 272.113,159.329 273.613,160.163 275.5,160C 274.167,158.667 272.833,157.333 271.5,156C 273.301,155.683 273.634,155.016 272.5,154C 275.374,156.079 278.707,157.412 282.5,158C 281.888,156.697 281.554,155.53 281.5,154.5C 280.158,155.902 279.324,155.569 279,153.5C 275.877,155.589 275.71,154.922 278.5,151.5C 276.966,150.264 275.3,149.764 273.5,150C 274.451,150.718 274.617,151.551 274,152.5C 272.989,151.663 271.822,151.33 270.5,151.5C 270.5,151.167 270.5,150.833 270.5,150.5C 271.164,149.352 271.331,148.019 271,146.5C 272.785,147.24 274.618,147.907 276.5,148.5C 277.711,147.726 277.711,146.893 276.5,146C 279.07,144.577 281.07,142.744 282.5,140.5 Z"/></g>
<g><path style="opacity:1" fill="#4c7e35" d="M 270.5,151.5 C 271.822,151.33 272.989,151.663 274,152.5C 274.617,151.551 274.451,150.718 273.5,150C 275.3,149.764 276.966,150.264 278.5,151.5C 275.71,154.922 275.877,155.589 279,153.5C 279.324,155.569 280.158,155.902 281.5,154.5C 281.554,155.53 281.888,156.697 282.5,158C 278.707,157.412 275.374,156.079 272.5,154C 273.634,155.016 273.301,155.683 271.5,156C 272.833,157.333 274.167,158.667 275.5,160C 273.613,160.163 272.113,159.329 271,157.5C 270.13,158.108 269.63,158.941 269.5,160C 270.01,161.826 270.844,161.993 272,160.5C 274.481,161.149 274.814,162.149 273,163.5C 269.975,162.209 269.641,162.876 272,165.5C 273.156,164.007 273.99,164.174 274.5,166C 274.108,167.011 273.441,167.511 272.5,167.5C 273.729,168.281 275.062,168.781 276.5,169C 274.671,169.273 273.171,170.107 272,171.5C 271.667,170.5 271.333,169.5 271,168.5C 269.853,169.458 268.853,169.125 268,167.5C 266.417,169.202 266.917,170.536 269.5,171.5C 268.975,172.192 268.308,172.692 267.5,173C 267.974,174.729 268.974,175.895 270.5,176.5C 265.678,178.233 260.678,179.399 255.5,180C 257.647,177.877 258.814,175.377 259,172.5C 257.534,174.325 255.701,174.825 253.5,174C 254.623,172.956 255.956,172.29 257.5,172C 255.956,171.71 254.623,171.044 253.5,170C 254.784,169.316 255.951,169.483 257,170.5C 257.5,170 258,169.5 258.5,169C 257.504,167.987 256.504,167.154 255.5,166.5C 253.971,166.529 252.804,167.196 252,168.5C 251.833,168.167 251.667,167.833 251.5,167.5C 253.636,165.04 256.302,163.373 259.5,162.5C 258.167,161.5 256.833,160.5 255.5,159.5C 256.868,158.406 258.035,158.74 259,160.5C 261.405,157.438 260.905,156.438 257.5,157.5C 256.784,156.689 255.95,156.022 255,155.5C 253.7,156.452 252.533,156.452 251.5,155.5C 253.39,154.576 254.89,153.243 256,151.5C 256.617,152.449 256.451,153.282 255.5,154C 256.416,154.374 257.25,154.874 258,155.5C 259.787,154.657 261.62,154.49 263.5,155C 264.059,154.275 264.392,153.442 264.5,152.5C 262.773,150.757 262.106,148.924 262.5,147C 263,146.833 263.5,146.667 264,146.5C 263.977,148.6 265.144,150.433 267.5,152C 268.577,152.47 269.577,152.303 270.5,151.5 Z"/></g>
<g><path style="opacity:1" fill="#294c22" d="M 254.5,185.5 C 256.5,189.833 258.5,194.167 260.5,198.5C 262.626,204.874 264.959,211.207 267.5,217.5C 267.343,218.873 267.51,220.207 268,221.5C 268.667,222.833 269.333,222.833 270,221.5C 270.651,223.235 270.485,224.902 269.5,226.5C 269.855,227.522 270.522,228.189 271.5,228.5C 260.436,244.077 249.936,260.077 240,276.5C 236.493,260.436 233.327,244.436 230.5,228.5C 220.675,227.67 210.675,227.17 200.5,227C 214.331,207.661 232.331,193.827 254.5,185.5 Z"/></g>
<g><path style="opacity:1" fill="#4b7d35" d="M 266.5,182.5 C 267.761,184.486 267.428,186.319 265.5,188C 267.101,188.273 268.601,188.773 270,189.5C 270.333,188.833 270.667,188.167 271,187.5C 271.814,189.902 271.647,192.235 270.5,194.5C 270.413,190.156 268.079,188.823 263.5,190.5C 262.754,191.736 262.421,193.07 262.5,194.5C 264.144,194.714 265.644,194.38 267,193.5C 268.615,194.656 268.615,195.989 267,197.5C 266.311,196.643 265.478,195.977 264.5,195.5C 263.431,196.91 262.097,197.91 260.5,198.5C 258.5,194.167 256.5,189.833 254.5,185.5C 258.239,183.898 262.239,182.898 266.5,182.5 Z"/></g>
<g><path style="opacity:1" fill="#3e6a2e" d="M 293.5,191.5 C 292.71,190.391 292.21,189.058 292,187.5C 291.346,188.696 290.846,188.696 290.5,187.5C 292.279,185.807 292.779,183.807 292,181.5C 291.395,183.481 290.395,183.815 289,182.5C 288.377,186.932 287.377,187.265 286,183.5C 284.214,184.787 284.047,186.287 285.5,188C 285.095,188.945 284.428,189.612 283.5,190C 284.634,191.016 284.301,191.683 282.5,192C 283.609,193.813 282.942,194.646 280.5,194.5C 280.5,193.5 280.5,192.5 280.5,191.5C 279.448,191.351 278.448,191.517 277.5,192C 278.787,193.41 279.954,194.91 281,196.5C 282.156,195.007 282.99,195.174 283.5,197C 282.678,200.452 281.345,203.952 279.5,207.5C 277.876,207.64 276.71,206.973 276,205.5C 273.773,208.577 270.94,209.41 267.5,208C 269.208,209.062 269.874,210.229 269.5,211.5C 270.192,210.975 270.692,210.308 271,209.5C 272.333,210.833 273.667,210.833 275,209.5C 277.024,211.792 276.69,212.459 274,211.5C 272.02,213.899 269.853,215.899 267.5,217.5C 264.959,211.207 262.626,204.874 260.5,198.5C 262.097,197.91 263.431,196.91 264.5,195.5C 265.478,195.977 266.311,196.643 267,197.5C 268.615,195.989 268.615,194.656 267,193.5C 265.644,194.38 264.144,194.714 262.5,194.5C 262.421,193.07 262.754,191.736 263.5,190.5C 268.079,188.823 270.413,190.156 270.5,194.5C 271.647,192.235 271.814,189.902 271,187.5C 270.667,188.167 270.333,188.833 270,189.5C 268.601,188.773 267.101,188.273 265.5,188C 267.428,186.319 267.761,184.486 266.5,182.5C 274.871,178.852 283.537,177.685 292.5,179C 293.464,183.066 293.797,187.233 293.5,191.5 Z"/></g>
<g><path style="opacity:1" fill="#305625" d="M 326.5,182.5 C 325.347,183.313 325.347,184.313 326.5,185.5C 325.833,186.167 325.167,186.833 324.5,187.5C 325.167,187.833 325.833,188.167 326.5,188.5C 326.167,189.167 325.833,189.833 325.5,190.5C 326.85,192.02 328.183,192.687 329.5,192.5C 327.547,196.412 325.713,196.412 324,192.5C 323.667,194.167 323.333,195.833 323,197.5C 320.609,196.398 320.109,197.064 321.5,199.5C 319.091,200.701 317.091,202.367 315.5,204.5C 315.938,205.506 316.604,205.506 317.5,204.5C 318.333,205.5 319.167,206.5 320,207.5C 320.96,205.621 321.46,203.621 321.5,201.5C 322.251,202.376 322.751,203.376 323,204.5C 324.133,202.789 325.633,202.289 327.5,203C 326.5,203.833 325.5,204.667 324.5,205.5C 325.891,205.109 326.891,205.942 327.5,208C 326.927,210.791 325.594,213.624 323.5,216.5C 323.709,217.086 324.043,217.586 324.5,218C 322.163,219.798 321.497,221.965 322.5,224.5C 322.023,225.931 321.357,227.264 320.5,228.5C 316.988,227.47 313.322,227.47 309.5,228.5C 305.702,227.517 301.702,227.183 297.5,227.5C 297.333,212.83 297.5,198.163 298,183.5C 299.365,182.407 299.699,181.074 299,179.5C 297.913,181.932 297.413,181.598 297.5,178.5C 307.522,178.198 317.189,179.532 326.5,182.5 Z"/></g>
<g><path style="opacity:1" fill="#345c28" d="M 293.5,191.5 C 293.134,197.745 292.467,203.911 291.5,210C 291.939,213.382 292.273,216.715 292.5,220C 292.646,222.034 291.98,223.701 290.5,225C 291.308,225.308 291.975,225.808 292.5,226.5C 285.345,227.167 278.345,227.833 271.5,228.5C 270.522,228.189 269.855,227.522 269.5,226.5C 270.485,224.902 270.651,223.235 270,221.5C 269.333,222.833 268.667,222.833 268,221.5C 267.51,220.207 267.343,218.873 267.5,217.5C 269.853,215.899 272.02,213.899 274,211.5C 276.69,212.459 277.024,211.792 275,209.5C 273.667,210.833 272.333,210.833 271,209.5C 270.692,210.308 270.192,210.975 269.5,211.5C 269.874,210.229 269.208,209.062 267.5,208C 270.94,209.41 273.773,208.577 276,205.5C 276.71,206.973 277.876,207.64 279.5,207.5C 281.345,203.952 282.678,200.452 283.5,197C 282.99,195.174 282.156,195.007 281,196.5C 279.954,194.91 278.787,193.41 277.5,192C 278.448,191.517 279.448,191.351 280.5,191.5C 280.5,192.5 280.5,193.5 280.5,194.5C 282.942,194.646 283.609,193.813 282.5,192C 284.301,191.683 284.634,191.016 283.5,190C 284.428,189.612 285.095,188.945 285.5,188C 284.047,186.287 284.214,184.787 286,183.5C 287.377,187.265 288.377,186.932 289,182.5C 290.395,183.815 291.395,183.481 292,181.5C 292.779,183.807 292.279,185.807 290.5,187.5C 290.846,188.696 291.346,188.696 292,187.5C 292.21,189.058 292.71,190.391 293.5,191.5 Z"/></g>
<g><path style="opacity:1" fill="#ebe949" d="M 104.5,228.5 C 118.167,228.5 131.833,228.5 145.5,228.5C 148.863,271.305 151.529,314.305 153.5,357.5C 153.5,361.5 153.5,365.5 153.5,369.5C 142.167,369.5 130.833,369.5 119.5,369.5C 119.828,358.654 119.494,347.987 118.5,337.5C 104.829,337.333 91.1626,337.5 77.5,338C 72.0258,348.449 66.6924,358.949 61.5,369.5C 49.6547,369.828 37.988,369.495 26.5,368.5C 51.9964,321.503 77.9964,274.836 104.5,228.5 Z"/></g>
<g><path style="opacity:1" fill="#ebe949" d="M 193.5,228.5 C 205.833,228.5 218.167,228.5 230.5,228.5C 233.327,244.436 236.493,260.436 240,276.5C 249.936,260.077 260.436,244.077 271.5,228.5C 284.167,228.5 296.833,228.5 309.5,228.5C 291.675,251.47 273.842,274.47 256,297.5C 255.672,300.207 256.005,302.874 257,305.5C 262.903,326.2 268.736,346.867 274.5,367.5C 262.88,369.479 250.88,370.146 238.5,369.5C 234.833,352.671 231.333,335.671 228,318.5C 217.13,336.265 205.297,353.265 192.5,369.5C 180.12,370.146 168.12,369.479 156.5,367.5C 175.143,343.852 193.81,320.186 212.5,296.5C 205.659,273.951 199.325,251.285 193.5,228.5 Z"/></g>
<g><path style="opacity:1" fill="#2a4d22" d="M 119.5,276.5 C 118.505,287.654 118.172,298.988 118.5,310.5C 109.318,310.827 100.318,310.493 91.5,309.5C 100.653,291.193 109.82,272.86 119,254.5C 119.5,261.826 119.666,269.159 119.5,276.5 Z"/></g>
<g><path style="opacity:1" fill="#a0b947" d="M 423.5,293.5 C 452.286,291.118 464.12,304.118 459,332.5C 452.233,360.121 434.733,372.954 406.5,371C 393.652,366.507 387.319,357.341 387.5,343.5C 388.473,318.575 400.473,301.908 423.5,293.5 Z"/></g>
<g><path style="opacity:1" fill="#88a23f" d="M 554.5,297.5 C 545.191,296.168 535.524,295.501 525.5,295.5C 515.426,295.512 505.426,295.845 495.5,296.5C 515.139,294.512 535.139,293.845 555.5,294.5C 555.737,295.791 555.404,296.791 554.5,297.5 Z"/></g>
<g><path style="opacity:1" fill="#9fb847" d="M 297.5,370.5 C 297.167,370.5 296.833,370.5 296.5,370.5C 295.5,370.5 294.5,370.5 293.5,370.5C 293.5,369.5 293.5,368.5 293.5,367.5C 299.014,343.442 304.848,319.442 311,295.5C 322.09,294.347 333.257,294.18 344.5,295C 361.66,297.822 366.16,306.988 358,322.5C 355.318,325.35 352.484,328.016 349.5,330.5C 356.118,335.548 358.285,342.215 356,350.5C 352.361,360.136 345.528,366.303 335.5,369C 322.88,370.374 310.213,370.874 297.5,370.5 Z"/></g>
<g><path style="opacity:1" fill="#9fb847" d="M 554.5,297.5 C 554.046,301.815 553.046,305.981 551.5,310C 544.508,310.5 537.508,310.666 530.5,310.5C 525.833,330.5 521.167,350.5 516.5,370.5C 510.132,370.83 503.798,370.496 497.5,369.5C 502.583,349.999 507.583,330.499 512.5,311C 505.842,310.5 499.175,310.334 492.5,310.5C 493.185,305.761 494.185,301.095 495.5,296.5C 505.426,295.845 515.426,295.512 525.5,295.5C 535.524,295.501 545.191,296.168 554.5,297.5 Z"/></g>
<g><path style="opacity:1" fill="#2c4e23" d="M 326.5,308.5 C 331.913,308.229 337.246,308.729 342.5,310C 343.852,318.339 340.186,323.006 331.5,324C 328.5,324.667 325.5,324.667 322.5,324C 324.228,318.922 325.561,313.755 326.5,308.5 Z"/></g>
<g><path style="opacity:1" fill="#2a4d22" d="M 425.5,309.5 C 435.782,307.28 441.115,311.28 441.5,321.5C 440.878,332.202 437.212,341.702 430.5,350C 425.37,354.709 419.37,356.376 412.5,355C 409.619,353.749 407.786,351.583 407,348.5C 405.738,336.622 408.738,325.955 416,316.5C 419.068,313.917 422.235,311.584 425.5,309.5 Z"/></g>
<g><path style="opacity:1" fill="#75852f" d="M 119.5,276.5 C 119.5,288.167 119.5,299.833 119.5,311.5C 109.81,311.832 100.144,311.498 90.5,310.5C 90.6236,309.893 90.9569,309.56 91.5,309.5C 100.318,310.493 109.318,310.827 118.5,310.5C 118.172,298.988 118.505,287.654 119.5,276.5 Z"/></g>
<g><path style="opacity:1" fill="#294c22" d="M 118.5,337.5 C 118.5,348.5 118.5,359.5 118.5,370.5C 119.5,370.5 120.5,370.5 121.5,370.5C 147.488,426.637 190.488,462.804 250.5,479C 264.316,482.264 278.316,483.764 292.5,483.5C 292.5,506.167 292.5,528.833 292.5,551.5C 194.531,547.593 120.365,503.927 70,420.5C 61.4417,404.388 54.275,387.722 48.5,370.5C 53.0323,370.818 57.3656,370.485 61.5,369.5C 66.6924,358.949 72.0258,348.449 77.5,338C 91.1626,337.5 104.829,337.333 118.5,337.5 Z"/></g>
<g><path style="opacity:1" fill="#2a4d22" d="M 318.5,338.5 C 324.509,338.334 330.509,338.501 336.5,339C 338.124,340.117 339.124,341.617 339.5,343.5C 338.593,349.499 335.26,353.333 329.5,355C 324.845,355.499 320.179,355.666 315.5,355.5C 316.66,349.861 317.66,344.195 318.5,338.5 Z"/></g>
<g><path style="opacity:1" fill="#babf3e" d="M 118.5,337.5 C 119.494,347.987 119.828,358.654 119.5,369.5C 130.833,369.5 142.167,369.5 153.5,369.5C 153.5,365.5 153.5,361.5 153.5,357.5C 154.324,361.312 154.824,365.312 155,369.5C 155.278,368.584 155.778,367.918 156.5,367.5C 168.12,369.479 180.12,370.146 192.5,369.5C 171.006,370.497 149.34,370.831 127.5,370.5C 125.5,370.5 123.5,370.5 121.5,370.5C 120.5,370.5 119.5,370.5 118.5,370.5C 118.5,359.5 118.5,348.5 118.5,337.5 Z"/></g>
<g><path style="opacity:1" fill="#c5c940" d="M 26.5,368.5 C 37.988,369.495 49.6547,369.828 61.5,369.5C 57.3656,370.485 53.0323,370.818 48.5,370.5C 45.8333,370.5 43.1667,370.5 40.5,370.5C 35.456,370.827 30.456,370.494 25.5,369.5C 25.6236,368.893 25.9569,368.56 26.5,368.5 Z"/></g>
<g><path style="opacity:1" fill="#c7ca40" d="M 274.5,367.5 C 275.404,368.209 275.737,369.209 275.5,370.5C 262.989,370.829 250.655,370.495 238.5,369.5C 250.88,370.146 262.88,369.479 274.5,367.5 Z"/></g>
<g><path style="opacity:1" fill="#5b943e" d="M 293.5,367.5 C 293.5,368.5 293.5,369.5 293.5,370.5C 294.5,370.5 295.5,370.5 296.5,370.5C 296.5,384.5 296.5,398.5 296.5,412.5C 299.713,412.81 302.713,412.477 305.5,411.5C 337.154,408.507 363.487,395.174 384.5,371.5C 386.167,370.167 387.833,370.167 389.5,371.5C 365.309,400.011 334.476,415.011 297,416.5C 296.5,436.831 296.333,457.164 296.5,477.5C 363.364,475.495 415.197,446.828 452,391.5C 456.059,384.715 459.559,377.715 462.5,370.5C 464.924,370.192 467.257,370.526 469.5,371.5C 435.788,439.879 380.788,477.212 304.5,483.5C 301.833,483.5 299.167,483.5 296.5,483.5C 296.169,506.339 296.503,529.006 297.5,551.5C 402.461,546.282 478.961,497.282 527,404.5C 532.063,393.477 536.229,382.144 539.5,370.5C 542.5,370.5 545.5,370.5 548.5,370.5C 523.77,449.104 473.77,505.27 398.5,539C 318.126,571.416 239.793,567.082 163.5,526C 102.224,490.222 61.2237,438.388 40.5,370.5C 43.1667,370.5 45.8333,370.5 48.5,370.5C 54.275,387.722 61.4417,404.388 70,420.5C 120.365,503.927 194.531,547.593 292.5,551.5C 292.5,528.833 292.5,506.167 292.5,483.5C 278.316,483.764 264.316,482.264 250.5,479C 190.488,462.804 147.488,426.637 121.5,370.5C 123.5,370.5 125.5,370.5 127.5,370.5C 156.562,429.366 203.562,464.533 268.5,476C 276.464,477.098 284.464,477.598 292.5,477.5C 292.5,457.167 292.5,436.833 292.5,416.5C 255.37,414.602 225.037,399.435 201.5,371C 203.167,370.333 204.833,370.333 206.5,371C 229.152,397.158 257.819,410.658 292.5,411.5C 292.171,396.657 292.504,381.99 293.5,367.5 Z"/></g>
<g><path style="opacity:1" fill="#406d2f" d="M 296.5,370.5 C 296.833,370.5 297.167,370.5 297.5,370.5C 297.5,384.167 297.5,397.833 297.5,411.5C 300.167,411.5 302.833,411.5 305.5,411.5C 302.713,412.477 299.713,412.81 296.5,412.5C 296.5,398.5 296.5,384.5 296.5,370.5 Z"/></g>
<g><path style="opacity:1" fill="#3a652c" d="M 304.5,483.5 C 302.393,484.468 300.059,484.802 297.5,484.5C 297.5,506.833 297.5,529.167 297.5,551.5C 296.503,529.006 296.169,506.339 296.5,483.5C 299.167,483.5 301.833,483.5 304.5,483.5 Z"/></g>
</svg>
